<svg width="1280" height="760" viewBox="0 0 1280 760" fill="none" xmlns="http://www.w3.org/2000/svg">
  <rect width="1280" height="760" rx="32" fill="#F4EEE5"/>
  <rect x="18" y="18" width="1244" height="724" rx="28" fill="#FFF9F1" stroke="#E5D7C5"/>
  <rect x="48" y="44" width="1184" height="78" rx="20" fill="#FFFDF9" stroke="#E9DCCA"/>
  <text x="74" y="84" fill="#B85231" font-size="18" font-family="Segoe UI, Arial" font-weight="700">Repo Agent Studio</text>
  <text x="74" y="108" fill="#15222D" font-size="34" font-family="Segoe UI, Arial" font-weight="700">Graph-augmented repository understanding workspace</text>

  <rect x="48" y="150" width="764" height="560" rx="24" fill="#FFFDF9" stroke="#E9DCCA"/>
  <rect x="838" y="150" width="394" height="560" rx="24" fill="#FFFDF9" stroke="#E9DCCA"/>

  <rect x="72" y="176" width="716" height="92" rx="20" fill="#FFF7EC" stroke="#ECD7BA"/>
  <text x="96" y="212" fill="#15222D" font-size="24" font-family="Segoe UI, Arial" font-weight="700">Ask a repository question</text>
  <text x="96" y="244" fill="#63717F" font-size="16" font-family="Segoe UI, Arial">Examples: “Where is the chat endpoint implemented?” • “What should I inspect first for a streaming bug?”</text>

  <rect x="72" y="292" width="716" height="54" rx="16" fill="#FBFBFB" stroke="#E5D7C5"/>
  <text x="94" y="326" fill="#63717F" font-size="18" font-family="Consolas, monospace">C:\workspace\my-repo     |     ask question     |     Analyze</text>

  <rect x="72" y="372" width="342" height="312" rx="20" fill="#F6FBFD" stroke="#C9DFE8"/>
  <text x="96" y="406" fill="#15222D" font-size="22" font-family="Segoe UI, Arial" font-weight="700">Final Answer</text>
  <text x="96" y="438" fill="#63717F" font-size="16" font-family="Segoe UI, Arial">Grounded summary, evidence chain, and suggested reading order.</text>
  <rect x="96" y="462" width="294" height="190" rx="14" fill="#FFFFFF" stroke="#DDE8EE"/>
  <text x="114" y="496" fill="#15222D" font-size="16" font-family="Segoe UI, Arial">Conclusion</text>
  <text x="114" y="524" fill="#63717F" font-size="14" font-family="Segoe UI, Arial">Start with server.js -> createStreamedAssistantTurn</text>
  <text x="114" y="552" fill="#63717F" font-size="14" font-family="Segoe UI, Arial">because it matches stream, error, and graph edges.</text>

  <rect x="446" y="372" width="342" height="312" rx="20" fill="#FFF8F5" stroke="#EBC9BE"/>
  <text x="470" y="406" fill="#15222D" font-size="22" font-family="Segoe UI, Arial" font-weight="700">Evidence</text>
  <text x="470" y="438" fill="#63717F" font-size="16" font-family="Segoe UI, Arial">Ranked snippets with reasons, scores, and matched terms.</text>
  <rect x="470" y="462" width="294" height="60" rx="14" fill="#FFFFFF" stroke="#E9DCCA"/>
  <text x="488" y="495" fill="#15222D" font-size="15" font-family="Segoe UI, Arial">server.js:createStreamedAssistantTurn</text>
  <rect x="470" y="536" width="294" height="60" rx="14" fill="#FFFFFF" stroke="#E9DCCA"/>
  <text x="488" y="569" fill="#15222D" font-size="15" font-family="Segoe UI, Arial">server.js:abortOnResponseClose</text>
  <rect x="470" y="610" width="294" height="42" rx="14" fill="#FFFFFF" stroke="#E9DCCA"/>
  <text x="488" y="637" fill="#63717F" font-size="13" font-family="Segoe UI, Arial">semantic rerank + graph expansion</text>

  <text x="864" y="186" fill="#15222D" font-size="24" font-family="Segoe UI, Arial" font-weight="700">Inspector</text>
  <text x="864" y="218" fill="#63717F" font-size="16" font-family="Segoe UI, Arial">Selected evidence, trace steps, and export actions.</text>

  <rect x="864" y="246" width="342" height="110" rx="18" fill="#F5FBF7" stroke="#CFE6D8"/>
  <text x="888" y="282" fill="#15222D" font-size="20" font-family="Segoe UI, Arial" font-weight="700">Selected Evidence</text>
  <text x="888" y="316" fill="#63717F" font-size="14" font-family="Segoe UI, Arial">path • lines • snippet • ranking reasons</text>

  <rect x="864" y="376" width="342" height="186" rx="18" fill="#FAF7FF" stroke="#DCD2F5"/>
  <text x="888" y="412" fill="#15222D" font-size="20" font-family="Segoe UI, Arial" font-weight="700">Trace Timeline</text>
  <text x="888" y="446" fill="#63717F" font-size="14" font-family="Segoe UI, Arial">1. plan</text>
  <text x="888" y="474" fill="#63717F" font-size="14" font-family="Segoe UI, Arial">2. seed retrieval</text>
  <text x="888" y="502" fill="#63717F" font-size="14" font-family="Segoe UI, Arial">3. graph expansion</text>
  <text x="888" y="530" fill="#63717F" font-size="14" font-family="Segoe UI, Arial">4. final ranking</text>

  <rect x="864" y="582" width="342" height="96" rx="18" fill="#FFF8F0" stroke="#ECD7BA"/>
  <text x="888" y="618" fill="#15222D" font-size="20" font-family="Segoe UI, Arial" font-weight="700">HTML Report</text>
  <text x="888" y="650" fill="#63717F" font-size="14" font-family="Segoe UI, Arial">One-click export for sharing and demos</text>
</svg>

